#tb 0: 1/25
0,          0,          0,        1,   518400, 0xc93c7c47
0,          1,          1,        1,   518400, 0xfb452a9c
0,          2,          2,        1,   518400, 0x2f7a35bd
0,          3,          3,        1,   518400, 0xe63e30b9
0,          4,          4,        1,   518400, 0x39628205
0,          5,          5,        1,   518400, 0x17fa1ea4
0,          6,          6,        1,   518400, 0xd5ee83e2
0,          7,          7,        1,   518400, 0x4fd6d5c9
0,          8,          8,        1,   518400, 0x8703c999
0,          9,          9,        1,   518400, 0x1a87e2d3
0,         10,         10,        1,   518400, 0xa27fc4d0
0,         11,         11,        1,   518400, 0x6effab5d
0,         12,         12,        1,   518400, 0x51ea02c9
0,         13,         13,        1,   518400, 0xbcf84c88
0,         14,         14,        1,   518400, 0x1d41076b
